<mxfile host="Electron" modified="2023-05-21T10:56:08.273Z" agent="Mozilla/5.0 (Windows NT 10.0; Win64; x64) AppleWebKit/537.36 (KHTML, like Gecko) draw.io/21.2.8 Chrome/112.0.5615.165 Electron/24.2.0 Safari/537.36" etag="NHJferRnjXK7B-PtbDzx" version="21.2.8" type="device">
  <diagram name="Страница 1" id="bcjNbAlNKYgeuGhsGt1m">
    <mxGraphModel dx="7139" dy="4832" grid="1" gridSize="10" guides="1" tooltips="1" connect="1" arrows="1" fold="1" page="1" pageScale="1" pageWidth="1169" pageHeight="827" math="0" shadow="0">
      <root>
        <mxCell id="0" />
        <mxCell id="1" parent="0" />
        <mxCell id="-gvfTLy93oYBnbmSHMDP-1" value="" style="rounded=1;whiteSpace=wrap;html=1;labelBackgroundColor=none;arcSize=4;sketch=1;curveFitting=1;jiggle=2;" parent="1" vertex="1">
          <mxGeometry x="810" y="-10" width="900" height="1380" as="geometry" />
        </mxCell>
        <mxCell id="-gvfTLy93oYBnbmSHMDP-2" value="" style="rounded=1;whiteSpace=wrap;html=1;labelBackgroundColor=none;arcSize=4;sketch=1;curveFitting=1;jiggle=2;" parent="1" vertex="1">
          <mxGeometry x="2140" y="190" width="1206.01" height="891" as="geometry" />
        </mxCell>
        <mxCell id="-gvfTLy93oYBnbmSHMDP-3" value="" style="rounded=1;whiteSpace=wrap;html=1;labelBackgroundColor=none;arcSize=2;fontStyle=1;sketch=1;curveFitting=1;jiggle=2;" parent="1" vertex="1">
          <mxGeometry x="-420" y="550" width="1140" height="960" as="geometry" />
        </mxCell>
        <mxCell id="-gvfTLy93oYBnbmSHMDP-4" value="" style="endArrow=block;endFill=0;endSize=12;html=1;entryX=0.5;entryY=1;entryDx=0;entryDy=0;exitX=0.5;exitY=0;exitDx=0;exitDy=0;labelBackgroundColor=none;fontColor=default;sketch=1;curveFitting=1;jiggle=2;" parent="1" source="-gvfTLy93oYBnbmSHMDP-9" target="-gvfTLy93oYBnbmSHMDP-5" edge="1">
          <mxGeometry width="160" relative="1" as="geometry">
            <mxPoint x="310" y="672" as="sourcePoint" />
            <mxPoint x="195.92000000000007" y="647" as="targetPoint" />
          </mxGeometry>
        </mxCell>
        <mxCell id="-gvfTLy93oYBnbmSHMDP-5" value="&lt;b&gt;QMainWindow&lt;/b&gt;" style="rounded=1;whiteSpace=wrap;html=1;labelBackgroundColor=none;sketch=1;curveFitting=1;jiggle=2;" parent="1" vertex="1">
          <mxGeometry x="249.69000000000028" y="602" width="120.62" height="40" as="geometry" />
        </mxCell>
        <mxCell id="-gvfTLy93oYBnbmSHMDP-6" style="edgeStyle=orthogonalEdgeStyle;rounded=1;orthogonalLoop=1;jettySize=auto;html=1;entryX=0.286;entryY=1;entryDx=0;entryDy=0;entryPerimeter=0;endArrow=none;endFill=0;endSize=10;startArrow=diamondThin;startFill=1;startSize=18;labelBackgroundColor=none;fontColor=default;sketch=1;curveFitting=1;jiggle=2;" parent="1" source="-gvfTLy93oYBnbmSHMDP-7" target="-gvfTLy93oYBnbmSHMDP-12" edge="1">
          <mxGeometry relative="1" as="geometry" />
        </mxCell>
        <mxCell id="-gvfTLy93oYBnbmSHMDP-7" value="&lt;&lt;interface&gt;&gt;&#xa;IAuth" style="swimlane;fontStyle=3;childLayout=stackLayout;horizontal=1;startSize=30;horizontalStack=0;resizeParent=1;resizeParentMax=0;resizeLast=0;collapsible=1;marginBottom=0;labelBackgroundColor=none;rounded=1;sketch=1;curveFitting=1;jiggle=2;" parent="1" vertex="1">
          <mxGeometry x="110" y="1036" width="170" height="120" as="geometry" />
        </mxCell>
        <mxCell id="-gvfTLy93oYBnbmSHMDP-8" value="+ drawForm(Ui::Widget): void&#xa;+ checkFields(): bool&#xa;+ onButtonAuth(): void&#xa;+ onButtonBack(): void" style="text;strokeColor=none;fillColor=none;align=left;verticalAlign=top;spacingLeft=4;spacingRight=4;overflow=hidden;rotatable=0;points=[[0,0.5],[1,0.5]];portConstraint=eastwest;labelBackgroundColor=none;rounded=1;sketch=1;curveFitting=1;jiggle=2;" parent="-gvfTLy93oYBnbmSHMDP-7" vertex="1">
          <mxGeometry y="30" width="170" height="90" as="geometry" />
        </mxCell>
        <mxCell id="-gvfTLy93oYBnbmSHMDP-9" value="MainWindow" style="swimlane;fontStyle=1;align=center;verticalAlign=top;childLayout=stackLayout;horizontal=1;startSize=26;horizontalStack=0;resizeParent=1;resizeParentMax=0;resizeLast=0;collapsible=1;marginBottom=0;labelBackgroundColor=none;rounded=1;sketch=1;curveFitting=1;jiggle=2;" parent="1" vertex="1">
          <mxGeometry x="205" y="670" width="210" height="230" as="geometry" />
        </mxCell>
        <mxCell id="-gvfTLy93oYBnbmSHMDP-10" value="- window: Ui::QMainWindow" style="text;strokeColor=none;fillColor=none;align=left;verticalAlign=top;spacingLeft=4;spacingRight=4;overflow=hidden;rotatable=0;points=[[0,0.5],[1,0.5]];portConstraint=eastwest;labelBackgroundColor=none;rounded=1;sketch=1;curveFitting=1;jiggle=2;" parent="-gvfTLy93oYBnbmSHMDP-9" vertex="1">
          <mxGeometry y="26" width="210" height="26" as="geometry" />
        </mxCell>
        <mxCell id="-gvfTLy93oYBnbmSHMDP-11" value="" style="line;strokeWidth=1;fillColor=none;align=left;verticalAlign=middle;spacingTop=-1;spacingLeft=3;spacingRight=3;rotatable=0;labelPosition=right;points=[];portConstraint=eastwest;labelBackgroundColor=none;rounded=1;sketch=1;curveFitting=1;jiggle=2;" parent="-gvfTLy93oYBnbmSHMDP-9" vertex="1">
          <mxGeometry y="52" width="210" height="8" as="geometry" />
        </mxCell>
        <mxCell id="-gvfTLy93oYBnbmSHMDP-12" value="+ drawForm(Ui::Widget): void&#xa;+ closeWindow(): void&#xa;+ onActionConfiguration(): void&#xa;+ onActionAuthorization(): void&#xa;+ onActionStatics(): void&#xa;+ onActionCountry(): void&#xa;+ onActionDarkMode(): void&#xa;+ onActionLightMode(): void&#xa;+ onActionOneSite(): void&#xa;+ onButtonRun(): void&#xa;+ onButtonOff(): void&#xa;&#xa;" style="text;strokeColor=none;fillColor=none;align=left;verticalAlign=top;spacingLeft=4;spacingRight=4;overflow=hidden;rotatable=0;points=[[0,0.5],[1,0.5]];portConstraint=eastwest;labelBackgroundColor=none;rounded=1;sketch=1;curveFitting=1;jiggle=2;" parent="-gvfTLy93oYBnbmSHMDP-9" vertex="1">
          <mxGeometry y="60" width="210" height="170" as="geometry" />
        </mxCell>
        <mxCell id="-gvfTLy93oYBnbmSHMDP-13" value="&lt;&lt;interface&gt;&gt;&#xa;IURLConfiguration" style="swimlane;fontStyle=3;childLayout=stackLayout;horizontal=1;startSize=30;horizontalStack=0;resizeParent=1;resizeParentMax=0;resizeLast=0;collapsible=1;marginBottom=0;labelBackgroundColor=none;rounded=1;sketch=1;curveFitting=1;jiggle=2;" parent="1" vertex="1">
          <mxGeometry x="390.31" y="1038" width="170" height="120" as="geometry" />
        </mxCell>
        <mxCell id="-gvfTLy93oYBnbmSHMDP-14" value="+ drawForm(Ui::Widget): void&#xa;+ onButtonAdd(): void&#xa;+ onButtonDelete: void&#xa;+ onButtonSave(): void&#xa;+ onButtonBack(): void&#xa;" style="text;strokeColor=none;fillColor=none;align=left;verticalAlign=top;spacingLeft=4;spacingRight=4;overflow=hidden;rotatable=0;points=[[0,0.5],[1,0.5]];portConstraint=eastwest;labelBackgroundColor=none;rounded=1;sketch=1;curveFitting=1;jiggle=2;" parent="-gvfTLy93oYBnbmSHMDP-13" vertex="1">
          <mxGeometry y="30" width="170" height="90" as="geometry" />
        </mxCell>
        <mxCell id="-gvfTLy93oYBnbmSHMDP-15" style="edgeStyle=orthogonalEdgeStyle;rounded=0;hachureGap=4;orthogonalLoop=1;jettySize=auto;html=1;fontFamily=Architects Daughter;fontSource=https%3A%2F%2Ffonts.googleapis.com%2Fcss%3Ffamily%3DArchitects%2BDaughter;fontSize=16;labelBackgroundColor=none;fontColor=default;sketch=1;curveFitting=1;jiggle=2;" parent="1" source="-gvfTLy93oYBnbmSHMDP-17" edge="1">
          <mxGeometry relative="1" as="geometry">
            <mxPoint x="435.3100000000004" y="520" as="targetPoint" />
          </mxGeometry>
        </mxCell>
        <mxCell id="-gvfTLy93oYBnbmSHMDP-16" style="edgeStyle=orthogonalEdgeStyle;rounded=0;hachureGap=4;orthogonalLoop=1;jettySize=auto;html=1;fontFamily=Architects Daughter;fontSource=https%3A%2F%2Ffonts.googleapis.com%2Fcss%3Ffamily%3DArchitects%2BDaughter;fontSize=16;labelBackgroundColor=none;fontColor=default;sketch=1;curveFitting=1;jiggle=2;" parent="1" source="-gvfTLy93oYBnbmSHMDP-17" edge="1">
          <mxGeometry relative="1" as="geometry">
            <mxPoint x="770" y="-20" as="targetPoint" />
          </mxGeometry>
        </mxCell>
        <mxCell id="-gvfTLy93oYBnbmSHMDP-17" value="&lt;font style=&quot;font-size: 40px;&quot;&gt;&lt;b&gt;КЛИЕНТ&lt;br&gt;&lt;/b&gt;&lt;/font&gt;" style="text;html=1;align=center;verticalAlign=middle;resizable=0;points=[];autosize=1;strokeColor=none;fillColor=none;labelBackgroundColor=none;rounded=1;rotation=-45;arcSize=0;sketch=1;curveFitting=1;jiggle=2;" parent="1" vertex="1">
          <mxGeometry x="345.31" y="-50" width="180" height="60" as="geometry" />
        </mxCell>
        <mxCell id="-gvfTLy93oYBnbmSHMDP-18" style="edgeStyle=orthogonalEdgeStyle;rounded=1;orthogonalLoop=1;jettySize=auto;html=1;exitX=0.5;exitY=0;exitDx=0;exitDy=0;entryX=0.498;entryY=1;entryDx=0;entryDy=0;entryPerimeter=0;fontSize=12;startArrow=none;startFill=0;endArrow=block;endFill=0;startSize=18;endSize=12;dashed=1;labelBackgroundColor=none;fontColor=default;sketch=1;curveFitting=1;jiggle=2;" parent="1" source="-gvfTLy93oYBnbmSHMDP-19" target="-gvfTLy93oYBnbmSHMDP-14" edge="1">
          <mxGeometry relative="1" as="geometry">
            <mxPoint x="470.31" y="1232" as="sourcePoint" />
          </mxGeometry>
        </mxCell>
        <mxCell id="-gvfTLy93oYBnbmSHMDP-19" value="URLConfiguration" style="swimlane;fontStyle=1;align=center;verticalAlign=top;childLayout=stackLayout;horizontal=1;startSize=26;horizontalStack=0;resizeParent=1;resizeParentMax=0;resizeLast=0;collapsible=1;marginBottom=0;rounded=1;shadow=0;glass=0;fontSize=12;labelBackgroundColor=none;sketch=1;curveFitting=1;jiggle=2;" parent="1" vertex="1">
          <mxGeometry x="345.31" y="1230" width="260" height="192" as="geometry" />
        </mxCell>
        <mxCell id="-gvfTLy93oYBnbmSHMDP-20" value="- widget: Ui::Widget*&#xa;- URLList: std::unordered_map&lt;std::string&gt;&#xa;- user: IUser*" style="text;strokeColor=none;fillColor=none;align=left;verticalAlign=top;spacingLeft=4;spacingRight=4;overflow=hidden;rotatable=0;points=[[0,0.5],[1,0.5]];portConstraint=eastwest;rounded=1;shadow=0;glass=0;fontSize=12;labelBackgroundColor=none;sketch=1;curveFitting=1;jiggle=2;" parent="-gvfTLy93oYBnbmSHMDP-19" vertex="1">
          <mxGeometry y="26" width="260" height="64" as="geometry" />
        </mxCell>
        <mxCell id="-gvfTLy93oYBnbmSHMDP-21" value="" style="line;strokeWidth=1;fillColor=none;align=left;verticalAlign=middle;spacingTop=-1;spacingLeft=3;spacingRight=3;rotatable=0;labelPosition=right;points=[];portConstraint=eastwest;rounded=1;shadow=0;glass=0;fontSize=12;labelBackgroundColor=none;sketch=1;curveFitting=1;jiggle=2;" parent="-gvfTLy93oYBnbmSHMDP-19" vertex="1">
          <mxGeometry y="90" width="260" height="2" as="geometry" />
        </mxCell>
        <mxCell id="-gvfTLy93oYBnbmSHMDP-22" value="+ drawForm(Ui::Widget): void&#xa;+ onButtonAdd(): void&#xa;+ onButtonDelete: void&#xa;+ onButtonSave(): void&#xa;+ onButtonBack(): void&#xa;+ getUrl(): std::unordered_map&lt;std::string&gt;&#xa;" style="text;strokeColor=none;fillColor=none;align=left;verticalAlign=top;spacingLeft=4;spacingRight=4;overflow=hidden;rotatable=0;points=[[0,0.5],[1,0.5]];portConstraint=eastwest;rounded=1;shadow=0;glass=0;fontSize=12;labelBackgroundColor=none;sketch=1;curveFitting=1;jiggle=2;" parent="-gvfTLy93oYBnbmSHMDP-19" vertex="1">
          <mxGeometry y="92" width="260" height="100" as="geometry" />
        </mxCell>
        <mxCell id="-gvfTLy93oYBnbmSHMDP-23" value="" style="endArrow=diamondThin;endFill=1;endSize=24;html=1;rounded=1;labelBackgroundColor=none;fontColor=default;exitX=0;exitY=0.5;exitDx=0;exitDy=0;entryX=0.463;entryY=1.019;entryDx=0;entryDy=0;entryPerimeter=0;sketch=1;curveFitting=1;jiggle=2;" parent="1" source="-gvfTLy93oYBnbmSHMDP-56" target="-gvfTLy93oYBnbmSHMDP-40" edge="1">
          <mxGeometry width="160" relative="1" as="geometry">
            <mxPoint x="1100" y="684" as="sourcePoint" />
            <mxPoint x="1190" y="530" as="targetPoint" />
            <Array as="points">
              <mxPoint x="1090" y="553" />
            </Array>
          </mxGeometry>
        </mxCell>
        <mxCell id="-gvfTLy93oYBnbmSHMDP-24" style="edgeStyle=orthogonalEdgeStyle;rounded=1;orthogonalLoop=1;jettySize=auto;html=1;exitX=0.5;exitY=0;exitDx=0;exitDy=0;entryX=0.49;entryY=1.005;entryDx=0;entryDy=0;entryPerimeter=0;endSize=12;endArrow=block;endFill=0;dashed=1;labelBackgroundColor=none;fontColor=default;sketch=1;curveFitting=1;jiggle=2;" parent="1" source="-gvfTLy93oYBnbmSHMDP-25" target="-gvfTLy93oYBnbmSHMDP-8" edge="1">
          <mxGeometry relative="1" as="geometry" />
        </mxCell>
        <mxCell id="-gvfTLy93oYBnbmSHMDP-25" value="Auth" style="swimlane;fontStyle=1;align=center;verticalAlign=top;childLayout=stackLayout;horizontal=1;startSize=30;horizontalStack=0;resizeParent=1;resizeParentMax=0;resizeLast=0;collapsible=1;marginBottom=0;labelBackgroundColor=none;rounded=1;sketch=1;curveFitting=1;jiggle=2;" parent="1" vertex="1">
          <mxGeometry x="90" y="1226" width="170" height="154" as="geometry" />
        </mxCell>
        <mxCell id="-gvfTLy93oYBnbmSHMDP-26" value="- widget: Ui::Widget*&#xa;- isValid: bool" style="text;strokeColor=none;fillColor=none;align=left;verticalAlign=top;spacingLeft=4;spacingRight=4;overflow=hidden;rotatable=0;points=[[0,0.5],[1,0.5]];portConstraint=eastwest;labelBackgroundColor=none;rounded=1;sketch=1;curveFitting=1;jiggle=2;" parent="-gvfTLy93oYBnbmSHMDP-25" vertex="1">
          <mxGeometry y="30" width="170" height="34" as="geometry" />
        </mxCell>
        <mxCell id="-gvfTLy93oYBnbmSHMDP-27" value="" style="line;strokeWidth=1;fillColor=none;align=left;verticalAlign=middle;spacingTop=-1;spacingLeft=3;spacingRight=3;rotatable=0;labelPosition=right;points=[];portConstraint=eastwest;labelBackgroundColor=none;rounded=1;sketch=1;curveFitting=1;jiggle=2;" parent="-gvfTLy93oYBnbmSHMDP-25" vertex="1">
          <mxGeometry y="64" width="170" height="8" as="geometry" />
        </mxCell>
        <mxCell id="-gvfTLy93oYBnbmSHMDP-28" value="+ drawForm(Ui::Widget): void&#xa;+ checkFields(): bool&#xa;+ onButtonAuth(): void&#xa;+ onButtonBack(): void" style="text;strokeColor=none;fillColor=none;align=left;verticalAlign=top;spacingLeft=4;spacingRight=4;overflow=hidden;rotatable=0;points=[[0,0.5],[1,0.5]];portConstraint=eastwest;labelBackgroundColor=none;rounded=1;sketch=1;curveFitting=1;jiggle=2;" parent="-gvfTLy93oYBnbmSHMDP-25" vertex="1">
          <mxGeometry y="72" width="170" height="82" as="geometry" />
        </mxCell>
        <mxCell id="-gvfTLy93oYBnbmSHMDP-29" value="&lt;&lt;interface&gt;&gt;&#xa;IUser" style="swimlane;fontStyle=3;childLayout=stackLayout;horizontal=1;startSize=40;horizontalStack=0;resizeParent=1;resizeParentMax=0;resizeLast=0;collapsible=1;marginBottom=0;labelBackgroundColor=none;rounded=1;sketch=1;curveFitting=1;jiggle=2;" parent="1" vertex="1">
          <mxGeometry x="-400" y="739" width="210" height="260" as="geometry" />
        </mxCell>
        <mxCell id="-gvfTLy93oYBnbmSHMDP-30" value="+ drawForm(Ui::Widget): void&#xa;+ getId(): int&#xa;+ setEmail(std::string): void&#xa;+ getEmail(): std::string&#xa;+ setName(std::string): void&#xa;+ getName(): std::string&#xa;+ setPasswordHash(std::string): void&#xa;+ getPasswordHash(): std::string&#xa;+ setUrlList(std::vector&lt;std::string&gt;)&#xa;+ getUrlList(): std::vector&lt;std::string&gt;&#xa;+ onButtonSave(): void&#xa;+ onButtonLogout(): void&#xa;+ onButtonBack(): void&#xa;" style="text;strokeColor=none;fillColor=none;align=left;verticalAlign=top;spacingLeft=4;spacingRight=4;overflow=hidden;rotatable=0;points=[[0,0.5],[1,0.5]];portConstraint=eastwest;labelBackgroundColor=none;rounded=1;sketch=1;curveFitting=1;jiggle=2;" parent="-gvfTLy93oYBnbmSHMDP-29" vertex="1">
          <mxGeometry y="40" width="210" height="220" as="geometry" />
        </mxCell>
        <mxCell id="-gvfTLy93oYBnbmSHMDP-31" value="User" style="swimlane;fontStyle=1;align=center;verticalAlign=top;childLayout=stackLayout;horizontal=1;startSize=26;horizontalStack=0;resizeParent=1;resizeParentMax=0;resizeLast=0;collapsible=1;marginBottom=0;labelBackgroundColor=none;rounded=1;sketch=1;curveFitting=1;jiggle=2;" parent="1" vertex="1">
          <mxGeometry x="-390" y="1120" width="210" height="310" as="geometry" />
        </mxCell>
        <mxCell id="-gvfTLy93oYBnbmSHMDP-32" value="- id: int&#xa;- name: std::string&#xa;- email: std::string&#xa;- passwordHash: std::string&#xa;- urlList: std::vector&lt;std::string&gt;" style="text;strokeColor=none;fillColor=none;align=left;verticalAlign=top;spacingLeft=4;spacingRight=4;overflow=hidden;rotatable=0;points=[[0,0.5],[1,0.5]];portConstraint=eastwest;labelBackgroundColor=none;rounded=1;sketch=1;curveFitting=1;jiggle=2;" parent="-gvfTLy93oYBnbmSHMDP-31" vertex="1">
          <mxGeometry y="26" width="210" height="74" as="geometry" />
        </mxCell>
        <mxCell id="-gvfTLy93oYBnbmSHMDP-33" value="" style="line;strokeWidth=1;fillColor=none;align=left;verticalAlign=middle;spacingTop=-1;spacingLeft=3;spacingRight=3;rotatable=0;labelPosition=right;points=[];portConstraint=eastwest;labelBackgroundColor=none;rounded=1;sketch=1;curveFitting=1;jiggle=2;" parent="-gvfTLy93oYBnbmSHMDP-31" vertex="1">
          <mxGeometry y="100" width="210" height="8" as="geometry" />
        </mxCell>
        <mxCell id="-gvfTLy93oYBnbmSHMDP-34" value="+ drawForm(Ui::Widget): void&#xa;+ getId(): int&#xa;+ setEmail(std::string): void&#xa;+ getEmail(): std::string&#xa;+ setName(std::string): void&#xa;+ getName(): std::string&#xa;+ setPasswordHash(std::string): void&#xa;+ getPasswordHash(): std::string&#xa;+ setUrlList(std::vector&lt;std::string&gt;)&#xa;+ getUrlList(): std::vector&lt;std::string&gt;&#xa;+ onButtonSave(): void&#xa;+ onButtonLogout(): void&#xa;+ onButtonBack(): void&#xa;" style="text;strokeColor=none;fillColor=none;align=left;verticalAlign=top;spacingLeft=4;spacingRight=4;overflow=hidden;rotatable=0;points=[[0,0.5],[1,0.5]];portConstraint=eastwest;labelBackgroundColor=none;fontStyle=0;rounded=1;sketch=1;curveFitting=1;jiggle=2;" parent="-gvfTLy93oYBnbmSHMDP-31" vertex="1">
          <mxGeometry y="108" width="210" height="202" as="geometry" />
        </mxCell>
        <mxCell id="-gvfTLy93oYBnbmSHMDP-35" style="edgeStyle=orthogonalEdgeStyle;rounded=1;orthogonalLoop=1;jettySize=auto;html=1;endArrow=diamondThin;endFill=0;endSize=18;labelBackgroundColor=none;fontColor=default;sketch=1;curveFitting=1;jiggle=2;" parent="1" source="-gvfTLy93oYBnbmSHMDP-28" target="-gvfTLy93oYBnbmSHMDP-34" edge="1">
          <mxGeometry relative="1" as="geometry">
            <Array as="points">
              <mxPoint x="175" y="1420" />
              <mxPoint x="-50" y="1420" />
              <mxPoint x="-50" y="1309" />
            </Array>
          </mxGeometry>
        </mxCell>
        <mxCell id="-gvfTLy93oYBnbmSHMDP-36" value="&lt;font style=&quot;font-size: 36px;&quot;&gt;Дима (GUI)&lt;/font&gt;" style="text;html=1;align=center;verticalAlign=middle;resizable=0;points=[];autosize=1;strokeColor=none;fillColor=none;labelBackgroundColor=none;rounded=1;sketch=1;curveFitting=1;jiggle=2;" parent="1" vertex="1">
          <mxGeometry x="80" y="480" width="210" height="60" as="geometry" />
        </mxCell>
        <mxCell id="-gvfTLy93oYBnbmSHMDP-37" value="ConfigClient" style="swimlane;fontStyle=1;align=center;verticalAlign=top;childLayout=stackLayout;horizontal=1;startSize=33;horizontalStack=0;resizeParent=1;resizeParentMax=0;resizeLast=0;collapsible=1;marginBottom=0;whiteSpace=wrap;html=1;labelBackgroundColor=none;rounded=1;sketch=1;curveFitting=1;jiggle=2;" parent="1" vertex="1">
          <mxGeometry x="970" y="280" width="260" height="200" as="geometry">
            <mxRectangle x="-260" y="672.5" width="110" height="33" as="alternateBounds" />
          </mxGeometry>
        </mxCell>
        <mxCell id="-gvfTLy93oYBnbmSHMDP-38" value="- peer: string&lt;br&gt;- allowedIPs:&amp;nbsp;std::map&amp;lt;&amp;gt;&lt;br&gt;- adresServer: string&lt;br&gt;- port: int&lt;br&gt;+ publicKey: string&lt;br&gt;- privateKey: string" style="text;strokeColor=none;fillColor=none;align=left;verticalAlign=top;spacingLeft=4;spacingRight=4;overflow=hidden;rotatable=0;points=[[0,0.5],[1,0.5]];portConstraint=eastwest;whiteSpace=wrap;html=1;labelBackgroundColor=none;rounded=1;sketch=1;curveFitting=1;jiggle=2;" parent="-gvfTLy93oYBnbmSHMDP-37" vertex="1">
          <mxGeometry y="33" width="260" height="94" as="geometry" />
        </mxCell>
        <mxCell id="-gvfTLy93oYBnbmSHMDP-39" value="" style="line;strokeWidth=1;fillColor=none;align=left;verticalAlign=middle;spacingTop=-1;spacingLeft=3;spacingRight=3;rotatable=0;labelPosition=right;points=[];portConstraint=eastwest;labelBackgroundColor=none;rounded=1;sketch=1;curveFitting=1;jiggle=2;" parent="-gvfTLy93oYBnbmSHMDP-37" vertex="1">
          <mxGeometry y="127" width="260" height="1" as="geometry" />
        </mxCell>
        <mxCell id="-gvfTLy93oYBnbmSHMDP-40" value="+ changeConfig(): void&lt;br&gt;-makeConfig(): void&lt;br&gt;+ addUrl() : void&lt;br&gt;- deleteConfig():" style="text;strokeColor=none;fillColor=none;align=left;verticalAlign=top;spacingLeft=4;spacingRight=4;overflow=hidden;rotatable=0;points=[[0,0.5],[1,0.5]];portConstraint=eastwest;whiteSpace=wrap;html=1;labelBackgroundColor=none;rounded=1;sketch=1;curveFitting=1;jiggle=2;" parent="-gvfTLy93oYBnbmSHMDP-37" vertex="1">
          <mxGeometry y="128" width="260" height="72" as="geometry" />
        </mxCell>
        <mxCell id="-gvfTLy93oYBnbmSHMDP-41" style="edgeStyle=orthogonalEdgeStyle;rounded=1;orthogonalLoop=1;jettySize=auto;html=1;exitX=0.491;exitY=0;exitDx=0;exitDy=0;endArrow=block;endFill=0;endSize=12;dashed=1;entryX=0.54;entryY=1.009;entryDx=0;entryDy=0;entryPerimeter=0;exitPerimeter=0;labelBackgroundColor=none;fontColor=default;sketch=1;curveFitting=1;jiggle=2;" parent="1" source="-gvfTLy93oYBnbmSHMDP-31" target="-gvfTLy93oYBnbmSHMDP-30" edge="1">
          <mxGeometry relative="1" as="geometry">
            <Array as="points">
              <mxPoint x="-287" y="1115" />
              <mxPoint x="-287" y="1001" />
            </Array>
          </mxGeometry>
        </mxCell>
        <mxCell id="-gvfTLy93oYBnbmSHMDP-42" value="&lt;font style=&quot;font-size: 36px;&quot;&gt;Клиент(http)&lt;/font&gt;" style="text;html=1;align=center;verticalAlign=middle;resizable=0;points=[];autosize=1;strokeColor=none;fillColor=none;labelBackgroundColor=none;rounded=1;sketch=1;curveFitting=1;jiggle=2;" parent="1" vertex="1">
          <mxGeometry x="1200" width="230" height="60" as="geometry" />
        </mxCell>
        <mxCell id="-gvfTLy93oYBnbmSHMDP-43" value="&lt;span style=&quot;color: rgb(0, 0, 0); font-family: Helvetica; font-size: 14px; font-style: normal; font-variant-ligatures: normal; font-variant-caps: normal; font-weight: 400; letter-spacing: normal; orphans: 2; text-align: center; text-indent: 0px; text-transform: none; widows: 2; word-spacing: 0px; -webkit-text-stroke-width: 0px; background-color: rgb(255, 255, 255); text-decoration-thickness: initial; text-decoration-style: initial; text-decoration-color: initial; float: none; display: inline !important;&quot;&gt;TCP with JSON serialization&lt;/span&gt;" style="text;whiteSpace=wrap;html=1;labelBackgroundColor=none;rounded=1;sketch=1;curveFitting=1;jiggle=2;fontSize=14;" parent="1" vertex="1">
          <mxGeometry x="1870" y="788" width="180" height="40" as="geometry" />
        </mxCell>
        <mxCell id="-gvfTLy93oYBnbmSHMDP-44" value="Server" style="swimlane;fontStyle=1;align=center;verticalAlign=top;childLayout=stackLayout;horizontal=1;startSize=26;horizontalStack=0;resizeParent=1;resizeParentMax=0;resizeLast=0;collapsible=1;marginBottom=0;labelBackgroundColor=none;rounded=1;sketch=1;curveFitting=1;jiggle=2;" parent="1" vertex="1">
          <mxGeometry x="2220" y="610" width="310" height="180" as="geometry">
            <mxRectangle x="350" y="60" width="80" height="30" as="alternateBounds" />
          </mxGeometry>
        </mxCell>
        <mxCell id="-gvfTLy93oYBnbmSHMDP-45" value="- boost::asio::io_context&amp; _io_context;&#xa;- boost::asio::ip::tcp::acceptor _acceptors;&#xa;- Config&amp; _config;&#xa;" style="text;strokeColor=none;fillColor=none;align=left;verticalAlign=top;spacingLeft=4;spacingRight=4;overflow=hidden;rotatable=0;points=[[0,0.5],[1,0.5]];portConstraint=eastwest;labelBackgroundColor=none;rounded=1;sketch=1;curveFitting=1;jiggle=2;" parent="-gvfTLy93oYBnbmSHMDP-44" vertex="1">
          <mxGeometry y="26" width="310" height="84" as="geometry" />
        </mxCell>
        <mxCell id="-gvfTLy93oYBnbmSHMDP-46" value="" style="line;strokeWidth=1;fillColor=none;align=left;verticalAlign=middle;spacingTop=-1;spacingLeft=3;spacingRight=3;rotatable=0;labelPosition=right;points=[];portConstraint=eastwest;labelBackgroundColor=none;rounded=1;sketch=1;curveFitting=1;jiggle=2;" parent="-gvfTLy93oYBnbmSHMDP-44" vertex="1">
          <mxGeometry y="110" width="310" height="18" as="geometry" />
        </mxCell>
        <mxCell id="-gvfTLy93oYBnbmSHMDP-47" value="- doAccept()" style="text;strokeColor=none;fillColor=none;align=left;verticalAlign=top;spacingLeft=4;spacingRight=4;overflow=hidden;rotatable=0;points=[[0,0.5],[1,0.5]];portConstraint=eastwest;labelBackgroundColor=none;rounded=1;sketch=1;curveFitting=1;jiggle=2;" parent="-gvfTLy93oYBnbmSHMDP-44" vertex="1">
          <mxGeometry y="128" width="310" height="52" as="geometry" />
        </mxCell>
        <mxCell id="-gvfTLy93oYBnbmSHMDP-49" value="VpnWorker " style="swimlane;fontStyle=1;align=center;verticalAlign=top;childLayout=stackLayout;horizontal=1;startSize=22;horizontalStack=0;resizeParent=1;resizeParentMax=0;resizeLast=0;collapsible=1;marginBottom=0;labelBackgroundColor=none;rounded=1;sketch=1;curveFitting=1;jiggle=2;" parent="1" vertex="1">
          <mxGeometry x="2573" y="817" width="310" height="210" as="geometry">
            <mxRectangle x="350" y="60" width="80" height="30" as="alternateBounds" />
          </mxGeometry>
        </mxCell>
        <mxCell id="-gvfTLy93oYBnbmSHMDP-50" value="    static constexpr std::size_t max_length = 1024;&#xa;    boost::asio::ip::tcp::socket _socket;&#xa;    char _data[max_length]{};&#xa;    std::string ipAddPeer;&#xa;    Config&amp; _config;" style="text;strokeColor=none;fillColor=none;align=left;verticalAlign=top;spacingLeft=4;spacingRight=4;overflow=hidden;rotatable=0;points=[[0,0.5],[1,0.5]];portConstraint=eastwest;labelBackgroundColor=none;rounded=1;sketch=1;curveFitting=1;jiggle=2;" parent="-gvfTLy93oYBnbmSHMDP-49" vertex="1">
          <mxGeometry y="22" width="310" height="78" as="geometry" />
        </mxCell>
        <mxCell id="-gvfTLy93oYBnbmSHMDP-51" value="" style="line;strokeWidth=1;fillColor=none;align=left;verticalAlign=middle;spacingTop=-1;spacingLeft=3;spacingRight=3;rotatable=0;labelPosition=right;points=[];portConstraint=eastwest;labelBackgroundColor=none;rounded=1;sketch=1;curveFitting=1;jiggle=2;" parent="-gvfTLy93oYBnbmSHMDP-49" vertex="1">
          <mxGeometry y="100" width="310" height="40" as="geometry" />
        </mxCell>
        <mxCell id="-gvfTLy93oYBnbmSHMDP-52" value="+ handle_request(std::shared_ptr&lt;boost::asio::ip::tcp::socket&gt; socket)&#xa;- generate_public_key(): std::string &#xa;- add_client_to_config(): void&#xa;+ get_available_ip_address(): std::string&#xa;" style="text;strokeColor=none;fillColor=none;align=left;verticalAlign=top;spacingLeft=4;spacingRight=4;overflow=hidden;rotatable=0;points=[[0,0.5],[1,0.5]];portConstraint=eastwest;labelBackgroundColor=none;rounded=1;sketch=1;curveFitting=1;jiggle=2;" parent="-gvfTLy93oYBnbmSHMDP-49" vertex="1">
          <mxGeometry y="140" width="310" height="70" as="geometry" />
        </mxCell>
        <mxCell id="-gvfTLy93oYBnbmSHMDP-53" value="&amp;lt;&amp;lt;interface&amp;gt;&amp;gt;&lt;br style=&quot;border-color: var(--border-color); padding: 0px; margin: 0px;&quot;&gt;ConfigClient" style="swimlane;fontStyle=1;align=center;verticalAlign=top;childLayout=stackLayout;horizontal=1;startSize=40;horizontalStack=0;resizeParent=1;resizeParentMax=0;resizeLast=0;collapsible=1;marginBottom=0;whiteSpace=wrap;html=1;labelBackgroundColor=none;rounded=1;sketch=1;curveFitting=1;jiggle=2;" parent="1" vertex="1">
          <mxGeometry x="970" y="76" width="260" height="103" as="geometry">
            <mxRectangle x="-260" y="672.5" width="110" height="33" as="alternateBounds" />
          </mxGeometry>
        </mxCell>
        <mxCell id="-gvfTLy93oYBnbmSHMDP-54" value="" style="line;strokeWidth=1;fillColor=none;align=left;verticalAlign=middle;spacingTop=-1;spacingLeft=3;spacingRight=3;rotatable=0;labelPosition=right;points=[];portConstraint=eastwest;labelBackgroundColor=none;rounded=1;sketch=1;curveFitting=1;jiggle=2;" parent="-gvfTLy93oYBnbmSHMDP-53" vertex="1">
          <mxGeometry y="40" width="260" height="8" as="geometry" />
        </mxCell>
        <mxCell id="-gvfTLy93oYBnbmSHMDP-55" value="+ changeConfig(): void&lt;br&gt;- makeConfig(): void" style="text;strokeColor=none;fillColor=none;align=left;verticalAlign=top;spacingLeft=4;spacingRight=4;overflow=hidden;rotatable=0;points=[[0,0.5],[1,0.5]];portConstraint=eastwest;whiteSpace=wrap;html=1;labelBackgroundColor=none;rounded=1;sketch=1;curveFitting=1;jiggle=2;" parent="-gvfTLy93oYBnbmSHMDP-53" vertex="1">
          <mxGeometry y="48" width="260" height="55" as="geometry" />
        </mxCell>
        <mxCell id="-gvfTLy93oYBnbmSHMDP-56" value="VPN_Client" style="swimlane;fontStyle=1;align=center;verticalAlign=top;childLayout=stackLayout;horizontal=1;startSize=26;horizontalStack=0;resizeParent=1;resizeParentMax=0;resizeLast=0;collapsible=1;marginBottom=0;labelBackgroundColor=none;rounded=1;sketch=1;curveFitting=1;jiggle=2;" parent="1" vertex="1">
          <mxGeometry x="1310" y="462.75" width="380" height="180" as="geometry">
            <mxRectangle x="2100" y="730" width="80" height="30" as="alternateBounds" />
          </mxGeometry>
        </mxCell>
        <mxCell id="-gvfTLy93oYBnbmSHMDP-57" value="- vpnClient: OVPNClient&#xa;- vpnContext: VPNContext&#xa;- vpnUser: User&#xa;+ config: ConfigClient" style="text;strokeColor=none;fillColor=none;align=left;verticalAlign=top;spacingLeft=4;spacingRight=4;overflow=hidden;rotatable=0;points=[[0,0.5],[1,0.5]];portConstraint=eastwest;labelBackgroundColor=none;rounded=1;sketch=1;curveFitting=1;jiggle=2;" parent="-gvfTLy93oYBnbmSHMDP-56" vertex="1">
          <mxGeometry y="26" width="380" height="64" as="geometry" />
        </mxCell>
        <mxCell id="-gvfTLy93oYBnbmSHMDP-58" value="" style="line;strokeWidth=1;fillColor=none;align=left;verticalAlign=middle;spacingTop=-1;spacingLeft=3;spacingRight=3;rotatable=0;labelPosition=right;points=[];portConstraint=eastwest;labelBackgroundColor=none;rounded=1;sketch=1;curveFitting=1;jiggle=2;" parent="-gvfTLy93oYBnbmSHMDP-56" vertex="1">
          <mxGeometry y="90" width="380" height="20" as="geometry" />
        </mxCell>
        <mxCell id="-gvfTLy93oYBnbmSHMDP-59" value="+ setVpnContext(VpnContext)&#xa;+ runVPN()&#xa;+ stopVPN()&#xa;+ getConfig()&#xa;" style="text;strokeColor=none;fillColor=none;align=left;verticalAlign=top;spacingLeft=4;spacingRight=4;overflow=hidden;rotatable=0;points=[[0,0.5],[1,0.5]];portConstraint=eastwest;labelBackgroundColor=none;rounded=1;sketch=1;curveFitting=1;jiggle=2;" parent="-gvfTLy93oYBnbmSHMDP-56" vertex="1">
          <mxGeometry y="110" width="380" height="70" as="geometry" />
        </mxCell>
        <mxCell id="-gvfTLy93oYBnbmSHMDP-60" style="edgeStyle=orthogonalEdgeStyle;rounded=1;orthogonalLoop=1;jettySize=auto;html=1;endArrow=none;endFill=0;endSize=10;startArrow=diamondThin;startFill=1;startSize=18;labelBackgroundColor=none;fontColor=default;exitX=0.5;exitY=0;exitDx=0;exitDy=0;entryX=0.793;entryY=1.001;entryDx=0;entryDy=0;entryPerimeter=0;sketch=1;curveFitting=1;jiggle=2;" parent="1" source="-gvfTLy93oYBnbmSHMDP-13" target="-gvfTLy93oYBnbmSHMDP-12" edge="1">
          <mxGeometry relative="1" as="geometry">
            <mxPoint x="290" y="1070" as="sourcePoint" />
            <mxPoint x="370" y="960" as="targetPoint" />
          </mxGeometry>
        </mxCell>
        <mxCell id="-gvfTLy93oYBnbmSHMDP-61" value="" style="shape=flexArrow;endArrow=classic;startArrow=classic;html=1;rounded=1;width=20;startSize=7.245977011494253;endSize=7.245977011494253;labelBackgroundColor=none;fontColor=default;sketch=1;curveFitting=1;jiggle=2;" parent="1" edge="1">
          <mxGeometry width="100" height="100" relative="1" as="geometry">
            <mxPoint x="1720" y="854.41" as="sourcePoint" />
            <mxPoint x="2120" y="854" as="targetPoint" />
            <Array as="points" />
          </mxGeometry>
        </mxCell>
        <mxCell id="-gvfTLy93oYBnbmSHMDP-66" value="&lt;&lt;struct&gt;&gt;&#xa;VPNContext" style="swimlane;fontStyle=1;childLayout=stackLayout;horizontal=1;startSize=32;fillColor=none;horizontalStack=0;resizeParent=1;resizeParentMax=0;resizeLast=0;collapsible=1;marginBottom=0;labelBackgroundColor=none;rounded=1;sketch=1;curveFitting=1;jiggle=2;" parent="1" vertex="1">
          <mxGeometry x="490" y="688" width="200" height="120" as="geometry" />
        </mxCell>
        <mxCell id="-gvfTLy93oYBnbmSHMDP-67" value="+ endpoint: IP&#xa;+ urlList: std::vector&lt;std::string&gt;&#xa;+ socket: str&#xa;+ port: int &#xa;&#xa;" style="text;strokeColor=none;fillColor=none;align=left;verticalAlign=top;spacingLeft=4;spacingRight=4;overflow=hidden;rotatable=0;points=[[0,0.5],[1,0.5]];portConstraint=eastwest;labelBackgroundColor=none;rounded=1;sketch=1;curveFitting=1;jiggle=2;" parent="-gvfTLy93oYBnbmSHMDP-66" vertex="1">
          <mxGeometry y="32" width="200" height="88" as="geometry" />
        </mxCell>
        <mxCell id="-gvfTLy93oYBnbmSHMDP-68" style="edgeStyle=orthogonalEdgeStyle;rounded=1;orthogonalLoop=1;jettySize=auto;html=1;endArrow=diamondThin;endFill=0;endSize=18;labelBackgroundColor=none;fontColor=default;exitX=1.02;exitY=0.333;exitDx=0;exitDy=0;exitPerimeter=0;entryX=0;entryY=0.5;entryDx=0;entryDy=0;sketch=1;curveFitting=1;jiggle=2;" parent="1" target="-gvfTLy93oYBnbmSHMDP-67" edge="1">
          <mxGeometry relative="1" as="geometry">
            <Array as="points">
              <mxPoint x="415" y="800" />
              <mxPoint x="450" y="800" />
              <mxPoint x="450" y="764" />
            </Array>
            <mxPoint x="415" y="818" as="sourcePoint" />
            <mxPoint x="570" y="800" as="targetPoint" />
          </mxGeometry>
        </mxCell>
        <mxCell id="-gvfTLy93oYBnbmSHMDP-69" value="&lt;font style=&quot;font-size: 36px;&quot;&gt;Сервер(back)&lt;/font&gt;" style="text;html=1;align=center;verticalAlign=middle;resizable=0;points=[];autosize=1;strokeColor=none;fillColor=none;labelBackgroundColor=none;rounded=1;sketch=1;curveFitting=1;jiggle=2;" parent="1" vertex="1">
          <mxGeometry x="2632" y="200" width="250" height="60" as="geometry" />
        </mxCell>
        <mxCell id="-gvfTLy93oYBnbmSHMDP-70" value="Config" style="swimlane;fontStyle=1;align=center;verticalAlign=top;childLayout=stackLayout;horizontal=1;startSize=40;horizontalStack=0;resizeParent=1;resizeParentMax=0;resizeLast=0;collapsible=1;marginBottom=0;labelBackgroundColor=none;rounded=1;sketch=1;curveFitting=1;jiggle=2;" parent="1" vertex="1">
          <mxGeometry x="2660" y="275" width="310" height="280" as="geometry">
            <mxRectangle x="350" y="60" width="80" height="30" as="alternateBounds" />
          </mxGeometry>
        </mxCell>
        <mxCell id="-gvfTLy93oYBnbmSHMDP-71" value="- std::string name;&#xa;- size_t peer = 101;&#xa;- int port;&#xa;- std::string publicKey;&#xa;- std::string privateKey;&#xa;- std::map&lt;std::size_t, std::string&gt; ipPull;" style="text;strokeColor=none;fillColor=none;align=left;verticalAlign=top;spacingLeft=4;spacingRight=4;overflow=hidden;rotatable=0;points=[[0,0.5],[1,0.5]];portConstraint=eastwest;labelBackgroundColor=none;rounded=1;sketch=1;curveFitting=1;jiggle=2;" parent="-gvfTLy93oYBnbmSHMDP-70" vertex="1">
          <mxGeometry y="40" width="310" height="100" as="geometry" />
        </mxCell>
        <mxCell id="-gvfTLy93oYBnbmSHMDP-72" value="" style="line;strokeWidth=1;fillColor=none;align=left;verticalAlign=middle;spacingTop=-1;spacingLeft=3;spacingRight=3;rotatable=0;labelPosition=right;points=[];portConstraint=eastwest;labelBackgroundColor=none;rounded=1;sketch=1;curveFitting=1;jiggle=2;" parent="-gvfTLy93oYBnbmSHMDP-70" vertex="1">
          <mxGeometry y="140" width="310" height="8" as="geometry" />
        </mxCell>
        <mxCell id="-gvfTLy93oYBnbmSHMDP-73" value="+ run(): void&#xa;+ stop(): void&#xa;+ deleteConfig(): void&#xa;- makeConfig(): void&#xa;- AddPeerToConfig(const WireguardPeer&amp; peer): void&#xa;- loadFromFile(const std::strnig&amp; path): void&#xa;- createKey(): void&#xa;- std::string getAllowedIP()" style="text;strokeColor=none;fillColor=none;align=left;verticalAlign=top;spacingLeft=4;spacingRight=4;overflow=hidden;rotatable=0;points=[[0,0.5],[1,0.5]];portConstraint=eastwest;labelBackgroundColor=none;rounded=1;sketch=1;curveFitting=1;jiggle=2;" parent="-gvfTLy93oYBnbmSHMDP-70" vertex="1">
          <mxGeometry y="148" width="310" height="132" as="geometry" />
        </mxCell>
        <mxCell id="-gvfTLy93oYBnbmSHMDP-74" value="&lt;&lt;interface&gt;&gt;&#xa;Config" style="swimlane;fontStyle=1;align=center;verticalAlign=top;childLayout=stackLayout;horizontal=1;startSize=40;horizontalStack=0;resizeParent=1;resizeParentMax=0;resizeLast=0;collapsible=1;marginBottom=0;labelBackgroundColor=none;rounded=1;sketch=1;curveFitting=1;jiggle=2;" parent="1" vertex="1">
          <mxGeometry x="2660" y="613.88" width="310" height="108" as="geometry">
            <mxRectangle x="3060" y="1020" width="80" height="30" as="alternateBounds" />
          </mxGeometry>
        </mxCell>
        <mxCell id="-gvfTLy93oYBnbmSHMDP-75" value="" style="line;strokeWidth=1;fillColor=none;align=left;verticalAlign=middle;spacingTop=-1;spacingLeft=3;spacingRight=3;rotatable=0;labelPosition=right;points=[];portConstraint=eastwest;labelBackgroundColor=none;rounded=1;sketch=1;curveFitting=1;jiggle=2;" parent="-gvfTLy93oYBnbmSHMDP-74" vertex="1">
          <mxGeometry y="40" width="310" height="8" as="geometry" />
        </mxCell>
        <mxCell id="-gvfTLy93oYBnbmSHMDP-76" value="+ deleteConfig(): void&#xa;+ makeConfig(): void" style="text;strokeColor=none;fillColor=none;align=left;verticalAlign=top;spacingLeft=4;spacingRight=4;overflow=hidden;rotatable=0;points=[[0,0.5],[1,0.5]];portConstraint=eastwest;labelBackgroundColor=none;rounded=1;sketch=1;curveFitting=1;jiggle=2;" parent="-gvfTLy93oYBnbmSHMDP-74" vertex="1">
          <mxGeometry y="48" width="310" height="60" as="geometry" />
        </mxCell>
        <mxCell id="-gvfTLy93oYBnbmSHMDP-77" value="" style="endArrow=block;dashed=1;endFill=0;endSize=12;html=1;rounded=1;labelBackgroundColor=none;fontColor=default;entryX=0.487;entryY=0.016;entryDx=0;entryDy=0;entryPerimeter=0;exitX=0.485;exitY=0.99;exitDx=0;exitDy=0;exitPerimeter=0;sketch=1;curveFitting=1;jiggle=2;" parent="1" source="-gvfTLy93oYBnbmSHMDP-73" target="-gvfTLy93oYBnbmSHMDP-74" edge="1">
          <mxGeometry width="160" relative="1" as="geometry">
            <mxPoint x="2800" y="472" as="sourcePoint" />
            <mxPoint x="2800" y="552" as="targetPoint" />
            <Array as="points" />
          </mxGeometry>
        </mxCell>
        <mxCell id="-gvfTLy93oYBnbmSHMDP-78" value="" style="endArrow=block;dashed=1;endFill=0;endSize=12;html=1;rounded=0;fontColor=default;entryX=0.5;entryY=1;entryDx=0;entryDy=0;exitX=0.5;exitY=0;exitDx=0;exitDy=0;labelBackgroundColor=none;sketch=1;curveFitting=1;jiggle=2;" parent="1" source="-gvfTLy93oYBnbmSHMDP-37" target="-gvfTLy93oYBnbmSHMDP-53" edge="1">
          <mxGeometry width="160" relative="1" as="geometry">
            <mxPoint x="830" y="625" as="sourcePoint" />
            <mxPoint x="990" y="625" as="targetPoint" />
          </mxGeometry>
        </mxCell>
        <mxCell id="-gvfTLy93oYBnbmSHMDP-84" value="&lt;&lt;interface&gt;&gt;&#xa;Statics" style="swimlane;fontStyle=3;childLayout=stackLayout;horizontal=1;startSize=30;horizontalStack=0;resizeParent=1;resizeParentMax=0;resizeLast=0;collapsible=1;marginBottom=0;labelBackgroundColor=none;rounded=1;sketch=1;curveFitting=1;jiggle=2;" parent="1" vertex="1">
          <mxGeometry x="-110" y="805" width="170" height="100" as="geometry" />
        </mxCell>
        <mxCell id="-gvfTLy93oYBnbmSHMDP-85" value="+ drawForm(Ui::Widget): void&#xa;+ showSpeed(): void&#xa;+ showGraph: void&#xa;+ onButtonBack(): void&#xa;" style="text;strokeColor=none;fillColor=none;align=left;verticalAlign=top;spacingLeft=4;spacingRight=4;overflow=hidden;rotatable=0;points=[[0,0.5],[1,0.5]];portConstraint=eastwest;labelBackgroundColor=none;rounded=1;sketch=1;curveFitting=1;jiggle=2;" parent="-gvfTLy93oYBnbmSHMDP-84" vertex="1">
          <mxGeometry y="30" width="170" height="70" as="geometry" />
        </mxCell>
        <mxCell id="-gvfTLy93oYBnbmSHMDP-86" style="edgeStyle=orthogonalEdgeStyle;rounded=1;orthogonalLoop=1;jettySize=auto;html=1;exitX=0.5;exitY=0;exitDx=0;exitDy=0;entryX=0.469;entryY=0.998;entryDx=0;entryDy=0;entryPerimeter=0;fontSize=12;startArrow=none;startFill=0;endArrow=block;endFill=0;startSize=18;endSize=12;dashed=1;labelBackgroundColor=none;fontColor=default;sketch=1;curveFitting=1;jiggle=2;" parent="1" source="-gvfTLy93oYBnbmSHMDP-87" target="-gvfTLy93oYBnbmSHMDP-85" edge="1">
          <mxGeometry relative="1" as="geometry">
            <mxPoint x="-25" y="999" as="sourcePoint" />
            <mxPoint x="-20.310000000000002" y="925" as="targetPoint" />
            <Array as="points">
              <mxPoint x="-30" y="985" />
              <mxPoint x="-30" y="910" />
              <mxPoint x="-30" y="910" />
            </Array>
          </mxGeometry>
        </mxCell>
        <mxCell id="-gvfTLy93oYBnbmSHMDP-87" value="URLConfiguration" style="swimlane;fontStyle=1;align=center;verticalAlign=top;childLayout=stackLayout;horizontal=1;startSize=26;horizontalStack=0;resizeParent=1;resizeParentMax=0;resizeLast=0;collapsible=1;marginBottom=0;rounded=1;shadow=0;glass=0;fontSize=12;labelBackgroundColor=none;sketch=1;curveFitting=1;jiggle=2;" parent="1" vertex="1">
          <mxGeometry x="-120" y="965" width="190" height="128" as="geometry" />
        </mxCell>
        <mxCell id="-gvfTLy93oYBnbmSHMDP-88" value="" style="line;strokeWidth=1;fillColor=none;align=left;verticalAlign=middle;spacingTop=-1;spacingLeft=3;spacingRight=3;rotatable=0;labelPosition=right;points=[];portConstraint=eastwest;rounded=1;shadow=0;glass=0;fontSize=12;labelBackgroundColor=none;sketch=1;curveFitting=1;jiggle=2;" parent="-gvfTLy93oYBnbmSHMDP-87" vertex="1">
          <mxGeometry y="26" width="190" height="2" as="geometry" />
        </mxCell>
        <mxCell id="-gvfTLy93oYBnbmSHMDP-89" value="+ drawForm(Ui::Widget): void&#xa;+ showSpeed(): void&#xa;+ showGraph: void&#xa;+ onButtonBack(): void&#xa;" style="text;strokeColor=none;fillColor=none;align=left;verticalAlign=top;spacingLeft=4;spacingRight=4;overflow=hidden;rotatable=0;points=[[0,0.5],[1,0.5]];portConstraint=eastwest;rounded=1;shadow=0;glass=0;fontSize=12;labelBackgroundColor=none;sketch=1;curveFitting=1;jiggle=2;" parent="-gvfTLy93oYBnbmSHMDP-87" vertex="1">
          <mxGeometry y="28" width="190" height="100" as="geometry" />
        </mxCell>
        <mxCell id="-gvfTLy93oYBnbmSHMDP-90" style="edgeStyle=orthogonalEdgeStyle;rounded=1;orthogonalLoop=1;jettySize=auto;html=1;entryX=-0.011;entryY=0.337;entryDx=0;entryDy=0;entryPerimeter=0;endArrow=none;endFill=0;endSize=10;startArrow=diamondThin;startFill=1;startSize=18;labelBackgroundColor=none;fontColor=default;exitX=0.5;exitY=0;exitDx=0;exitDy=0;sketch=1;curveFitting=1;jiggle=2;" parent="1" source="-gvfTLy93oYBnbmSHMDP-84" target="-gvfTLy93oYBnbmSHMDP-12" edge="1">
          <mxGeometry relative="1" as="geometry">
            <mxPoint x="-30" y="776" as="sourcePoint" />
            <mxPoint x="40" y="670" as="targetPoint" />
            <Array as="points">
              <mxPoint x="-25" y="750" />
              <mxPoint x="137" y="750" />
              <mxPoint x="137" y="797" />
            </Array>
          </mxGeometry>
        </mxCell>
        <mxCell id="-gvfTLy93oYBnbmSHMDP-91" value="Клиент отправляет public key,&amp;nbsp;" style="rounded=0;whiteSpace=wrap;html=1;labelBackgroundColor=none;sketch=1;curveFitting=1;jiggle=2;" parent="1" vertex="1">
          <mxGeometry x="1760" y="883" width="120" height="60" as="geometry" />
        </mxCell>
        <mxCell id="-gvfTLy93oYBnbmSHMDP-92" value="Сервер отправляет&lt;br&gt;public key, ip(на сервере)" style="rounded=0;whiteSpace=wrap;html=1;labelBackgroundColor=none;sketch=1;curveFitting=1;jiggle=2;" parent="1" vertex="1">
          <mxGeometry x="1960" y="883" width="150" height="60" as="geometry" />
        </mxCell>
        <mxCell id="-gvfTLy93oYBnbmSHMDP-93" value="&lt;&lt;interface&gt;&gt;&#xa;Connect" style="swimlane;fontStyle=1;align=center;verticalAlign=top;childLayout=stackLayout;horizontal=1;startSize=40;horizontalStack=0;resizeParent=1;resizeParentMax=0;resizeLast=0;collapsible=1;marginBottom=0;labelBackgroundColor=none;rounded=1;sketch=1;curveFitting=1;jiggle=2;" parent="1" vertex="1">
          <mxGeometry x="1354" y="1213" width="310" height="118" as="geometry">
            <mxRectangle x="350" y="60" width="80" height="30" as="alternateBounds" />
          </mxGeometry>
        </mxCell>
        <mxCell id="-gvfTLy93oYBnbmSHMDP-94" value="" style="line;strokeWidth=1;fillColor=none;align=left;verticalAlign=middle;spacingTop=-1;spacingLeft=3;spacingRight=3;rotatable=0;labelPosition=right;points=[];portConstraint=eastwest;labelBackgroundColor=none;rounded=1;sketch=1;curveFitting=1;jiggle=2;" parent="-gvfTLy93oYBnbmSHMDP-93" vertex="1">
          <mxGeometry y="40" width="310" height="8" as="geometry" />
        </mxCell>
        <mxCell id="-gvfTLy93oYBnbmSHMDP-95" value="+ start()&#xa;+ close()&#xa;- send_request()&#xa;- receive_responce()" style="text;strokeColor=none;fillColor=none;align=left;verticalAlign=top;spacingLeft=4;spacingRight=4;overflow=hidden;rotatable=0;points=[[0,0.5],[1,0.5]];portConstraint=eastwest;labelBackgroundColor=none;rounded=1;sketch=1;curveFitting=1;jiggle=2;" parent="-gvfTLy93oYBnbmSHMDP-93" vertex="1">
          <mxGeometry y="48" width="310" height="70" as="geometry" />
        </mxCell>
        <mxCell id="-gvfTLy93oYBnbmSHMDP-96" value="" style="endArrow=block;dashed=1;endFill=0;endSize=12;html=1;rounded=0;fontColor=default;exitX=0.506;exitY=1.014;exitDx=0;exitDy=0;labelBackgroundColor=none;exitPerimeter=0;sketch=1;curveFitting=1;jiggle=2;" parent="1" source="-gvfTLy93oYBnbmSHMDP-100" edge="1">
          <mxGeometry width="160" relative="1" as="geometry">
            <mxPoint x="1580" y="852" as="sourcePoint" />
            <mxPoint x="1500" y="1217" as="targetPoint" />
            <Array as="points">
              <mxPoint x="1500" y="1177" />
            </Array>
          </mxGeometry>
        </mxCell>
        <mxCell id="-gvfTLy93oYBnbmSHMDP-97" value="TCPConnect" style="swimlane;fontStyle=1;align=center;verticalAlign=top;childLayout=stackLayout;horizontal=1;startSize=40;horizontalStack=0;resizeParent=1;resizeParentMax=0;resizeLast=0;collapsible=1;marginBottom=0;labelBackgroundColor=none;rounded=1;sketch=1;curveFitting=1;jiggle=2;" parent="1" vertex="1">
          <mxGeometry x="1345" y="1009" width="310" height="158" as="geometry">
            <mxRectangle x="350" y="60" width="80" height="30" as="alternateBounds" />
          </mxGeometry>
        </mxCell>
        <mxCell id="-gvfTLy93oYBnbmSHMDP-98" value="std::shared_ptr&lt;boost::asio::ip::tcp::socket&gt; socket" style="text;strokeColor=none;fillColor=none;align=left;verticalAlign=top;spacingLeft=4;spacingRight=4;overflow=hidden;rotatable=0;points=[[0,0.5],[1,0.5]];portConstraint=eastwest;labelBackgroundColor=none;rounded=1;sketch=1;curveFitting=1;jiggle=2;" parent="-gvfTLy93oYBnbmSHMDP-97" vertex="1">
          <mxGeometry y="40" width="310" height="40" as="geometry" />
        </mxCell>
        <mxCell id="-gvfTLy93oYBnbmSHMDP-99" value="" style="line;strokeWidth=1;fillColor=none;align=left;verticalAlign=middle;spacingTop=-1;spacingLeft=3;spacingRight=3;rotatable=0;labelPosition=right;points=[];portConstraint=eastwest;labelBackgroundColor=none;rounded=1;sketch=1;curveFitting=1;jiggle=2;" parent="-gvfTLy93oYBnbmSHMDP-97" vertex="1">
          <mxGeometry y="80" width="310" height="8" as="geometry" />
        </mxCell>
        <mxCell id="-gvfTLy93oYBnbmSHMDP-100" value="+ connect()&#xa;+ close()&#xa;- send_request(const std::string&amp; request)&#xa;- receive_responce()" style="text;strokeColor=none;fillColor=none;align=left;verticalAlign=top;spacingLeft=4;spacingRight=4;overflow=hidden;rotatable=0;points=[[0,0.5],[1,0.5]];portConstraint=eastwest;labelBackgroundColor=none;rounded=1;sketch=1;curveFitting=1;jiggle=2;" parent="-gvfTLy93oYBnbmSHMDP-97" vertex="1">
          <mxGeometry y="88" width="310" height="70" as="geometry" />
        </mxCell>
        <mxCell id="-gvfTLy93oYBnbmSHMDP-101" value="" style="endArrow=diamondThin;endFill=1;endSize=24;html=1;rounded=1;labelBackgroundColor=none;fontColor=default;exitX=0.496;exitY=1.01;exitDx=0;exitDy=0;exitPerimeter=0;sketch=1;curveFitting=1;jiggle=2;" parent="-gvfTLy93oYBnbmSHMDP-97" source="-gvfTLy93oYBnbmSHMDP-203" edge="1">
          <mxGeometry width="160" relative="1" as="geometry">
            <mxPoint x="70" y="158" as="sourcePoint" />
            <mxPoint x="153" y="-2" as="targetPoint" />
            <Array as="points" />
          </mxGeometry>
        </mxCell>
        <mxCell id="-gvfTLy93oYBnbmSHMDP-102" value="" style="endArrow=block;dashed=1;endFill=0;endSize=12;html=1;rounded=0;fontColor=default;labelBackgroundColor=none;entryX=0.491;entryY=0.963;entryDx=0;entryDy=0;entryPerimeter=0;sketch=1;curveFitting=1;jiggle=2;" parent="1" source="-gvfTLy93oYBnbmSHMDP-56" target="-gvfTLy93oYBnbmSHMDP-105" edge="1">
          <mxGeometry width="160" relative="1" as="geometry">
            <mxPoint x="1489.7" y="459.75" as="sourcePoint" />
            <mxPoint x="1489.7" y="399.75" as="targetPoint" />
          </mxGeometry>
        </mxCell>
        <mxCell id="-gvfTLy93oYBnbmSHMDP-103" value="&lt;&lt;interface&gt;&gt;&#xa;VPN_Client" style="swimlane;fontStyle=1;align=center;verticalAlign=top;childLayout=stackLayout;horizontal=1;startSize=40;horizontalStack=0;resizeParent=1;resizeParentMax=0;resizeLast=0;collapsible=1;marginBottom=0;labelBackgroundColor=none;rounded=1;sketch=1;curveFitting=1;jiggle=2;" parent="1" vertex="1">
          <mxGeometry x="1310" y="293.25" width="380" height="110" as="geometry">
            <mxRectangle x="2100" y="730" width="80" height="30" as="alternateBounds" />
          </mxGeometry>
        </mxCell>
        <mxCell id="-gvfTLy93oYBnbmSHMDP-104" value="" style="line;strokeWidth=1;fillColor=none;align=left;verticalAlign=middle;spacingTop=-1;spacingLeft=3;spacingRight=3;rotatable=0;labelPosition=right;points=[];portConstraint=eastwest;labelBackgroundColor=none;rounded=1;sketch=1;curveFitting=1;jiggle=2;" parent="-gvfTLy93oYBnbmSHMDP-103" vertex="1">
          <mxGeometry y="40" width="380" height="20" as="geometry" />
        </mxCell>
        <mxCell id="-gvfTLy93oYBnbmSHMDP-105" value="+ runVPN()&#xa;+ stopVPN()&#xa;" style="text;strokeColor=none;fillColor=none;align=left;verticalAlign=top;spacingLeft=4;spacingRight=4;overflow=hidden;rotatable=0;points=[[0,0.5],[1,0.5]];portConstraint=eastwest;labelBackgroundColor=none;rounded=1;sketch=1;curveFitting=1;jiggle=2;" parent="-gvfTLy93oYBnbmSHMDP-103" vertex="1">
          <mxGeometry y="60" width="380" height="50" as="geometry" />
        </mxCell>
        <mxCell id="-gvfTLy93oYBnbmSHMDP-192" value="htttp_RequestHandler" style="swimlane;fontStyle=1;align=center;verticalAlign=top;childLayout=stackLayout;horizontal=1;startSize=26;horizontalStack=0;resizeParent=1;resizeParentMax=0;resizeLast=0;collapsible=1;marginBottom=0;labelBackgroundColor=none;rounded=1;sketch=1;curveFitting=1;jiggle=2;" parent="1" vertex="1">
          <mxGeometry x="850" y="799.22" width="330" height="130" as="geometry" />
        </mxCell>
        <mxCell id="-gvfTLy93oYBnbmSHMDP-193" value="-" style="text;strokeColor=none;fillColor=none;align=left;verticalAlign=top;spacingLeft=4;spacingRight=4;overflow=hidden;rotatable=0;points=[[0,0.5],[1,0.5]];portConstraint=eastwest;labelBackgroundColor=none;rounded=1;sketch=1;curveFitting=1;jiggle=2;" parent="-gvfTLy93oYBnbmSHMDP-192" vertex="1">
          <mxGeometry y="26" width="330" height="24" as="geometry" />
        </mxCell>
        <mxCell id="-gvfTLy93oYBnbmSHMDP-194" value="" style="line;strokeWidth=1;fillColor=none;align=left;verticalAlign=middle;spacingTop=-1;spacingLeft=3;spacingRight=3;rotatable=0;labelPosition=right;points=[];portConstraint=eastwest;labelBackgroundColor=none;rounded=1;sketch=1;curveFitting=1;jiggle=2;" parent="-gvfTLy93oYBnbmSHMDP-192" vertex="1">
          <mxGeometry y="50" width="330" height="8" as="geometry" />
        </mxCell>
        <mxCell id="-gvfTLy93oYBnbmSHMDP-195" value="+ handle_request(std::string, &#xa;                            std::shared_ptr&lt;Connection&gt;,&#xa;                            std::shared_ptr&lt;ResponseHandler&gt;): void" style="text;strokeColor=none;fillColor=none;align=left;verticalAlign=top;spacingLeft=4;spacingRight=4;overflow=hidden;rotatable=0;points=[[0,0.5],[1,0.5]];portConstraint=eastwest;labelBackgroundColor=none;fontStyle=0;rounded=1;sketch=1;curveFitting=1;jiggle=2;" parent="-gvfTLy93oYBnbmSHMDP-192" vertex="1">
          <mxGeometry y="58" width="330" height="72" as="geometry" />
        </mxCell>
        <mxCell id="-gvfTLy93oYBnbmSHMDP-196" value="http_ResponseHandler" style="swimlane;fontStyle=1;align=center;verticalAlign=top;childLayout=stackLayout;horizontal=1;startSize=26;horizontalStack=0;resizeParent=1;resizeParentMax=0;resizeLast=0;collapsible=1;marginBottom=0;labelBackgroundColor=none;rounded=1;sketch=1;curveFitting=1;jiggle=2;" parent="1" vertex="1">
          <mxGeometry x="850" y="961" width="330" height="110" as="geometry" />
        </mxCell>
        <mxCell id="-gvfTLy93oYBnbmSHMDP-197" value="-" style="text;strokeColor=none;fillColor=none;align=left;verticalAlign=top;spacingLeft=4;spacingRight=4;overflow=hidden;rotatable=0;points=[[0,0.5],[1,0.5]];portConstraint=eastwest;labelBackgroundColor=none;rounded=1;sketch=1;curveFitting=1;jiggle=2;" parent="-gvfTLy93oYBnbmSHMDP-196" vertex="1">
          <mxGeometry y="26" width="330" height="24" as="geometry" />
        </mxCell>
        <mxCell id="-gvfTLy93oYBnbmSHMDP-198" value="" style="line;strokeWidth=1;fillColor=none;align=left;verticalAlign=middle;spacingTop=-1;spacingLeft=3;spacingRight=3;rotatable=0;labelPosition=right;points=[];portConstraint=eastwest;labelBackgroundColor=none;rounded=1;sketch=1;curveFitting=1;jiggle=2;" parent="-gvfTLy93oYBnbmSHMDP-196" vertex="1">
          <mxGeometry y="50" width="330" height="8" as="geometry" />
        </mxCell>
        <mxCell id="-gvfTLy93oYBnbmSHMDP-199" value="+ send_response(std::shared_ptr&lt;Connection&gt;,&#xa;                            std::string): void" style="text;strokeColor=none;fillColor=none;align=left;verticalAlign=top;spacingLeft=4;spacingRight=4;overflow=hidden;rotatable=0;points=[[0,0.5],[1,0.5]];portConstraint=eastwest;labelBackgroundColor=none;fontStyle=0;rounded=1;sketch=1;curveFitting=1;jiggle=2;" parent="-gvfTLy93oYBnbmSHMDP-196" vertex="1">
          <mxGeometry y="58" width="330" height="52" as="geometry" />
        </mxCell>
        <mxCell id="-gvfTLy93oYBnbmSHMDP-200" value="Client_handshake&#xa;" style="swimlane;fontStyle=1;align=center;verticalAlign=top;childLayout=stackLayout;horizontal=1;startSize=26;horizontalStack=0;resizeParent=1;resizeParentMax=0;resizeLast=0;collapsible=1;marginBottom=0;labelBackgroundColor=none;rounded=1;sketch=1;curveFitting=1;jiggle=2;" parent="1" vertex="1">
          <mxGeometry x="1310" y="760" width="380" height="200" as="geometry">
            <mxRectangle x="2100" y="730" width="80" height="30" as="alternateBounds" />
          </mxGeometry>
        </mxCell>
        <mxCell id="-gvfTLy93oYBnbmSHMDP-201" value="- io_context_ : boost::asio::io_context;&#xa;- acceptor_: tcp::acceptor;&#xa;- ssl_context_ : ssl::context ;&#xa;- request_handler_ :std::shared_ptr&lt;RequestHandler&gt;;&#xa;-response_handler_ : std::shared_ptr&lt;ResponseHandler&gt;;" style="text;strokeColor=none;fillColor=none;align=left;verticalAlign=top;spacingLeft=4;spacingRight=4;overflow=hidden;rotatable=0;points=[[0,0.5],[1,0.5]];portConstraint=eastwest;labelBackgroundColor=none;rounded=1;sketch=1;curveFitting=1;jiggle=2;" parent="-gvfTLy93oYBnbmSHMDP-200" vertex="1">
          <mxGeometry y="26" width="380" height="84" as="geometry" />
        </mxCell>
        <mxCell id="-gvfTLy93oYBnbmSHMDP-202" value="" style="line;strokeWidth=1;fillColor=none;align=left;verticalAlign=middle;spacingTop=-1;spacingLeft=3;spacingRight=3;rotatable=0;labelPosition=right;points=[];portConstraint=eastwest;labelBackgroundColor=none;rounded=1;sketch=1;curveFitting=1;jiggle=2;" parent="-gvfTLy93oYBnbmSHMDP-200" vertex="1">
          <mxGeometry y="110" width="380" height="20" as="geometry" />
        </mxCell>
        <mxCell id="-gvfTLy93oYBnbmSHMDP-203" value="- accept_connections(): void&#xa;- handle_connection(std::shared_ptr&lt;Connection&gt;): voi" style="text;strokeColor=none;fillColor=none;align=left;verticalAlign=top;spacingLeft=4;spacingRight=4;overflow=hidden;rotatable=0;points=[[0,0.5],[1,0.5]];portConstraint=eastwest;labelBackgroundColor=none;rounded=1;sketch=1;curveFitting=1;jiggle=2;" parent="-gvfTLy93oYBnbmSHMDP-200" vertex="1">
          <mxGeometry y="130" width="380" height="70" as="geometry" />
        </mxCell>
        <mxCell id="-gvfTLy93oYBnbmSHMDP-204" value="" style="endArrow=diamondThin;endFill=1;endSize=24;html=1;rounded=1;labelBackgroundColor=none;fontColor=default;entryX=0;entryY=0.5;entryDx=0;entryDy=0;exitX=1;exitY=0.5;exitDx=0;exitDy=0;sketch=1;curveFitting=1;jiggle=2;" parent="1" source="-gvfTLy93oYBnbmSHMDP-192" target="-gvfTLy93oYBnbmSHMDP-200" edge="1">
          <mxGeometry width="160" relative="1" as="geometry">
            <mxPoint x="1135" y="949.51" as="sourcePoint" />
            <mxPoint x="1215" y="948.51" as="targetPoint" />
            <Array as="points" />
          </mxGeometry>
        </mxCell>
        <mxCell id="-gvfTLy93oYBnbmSHMDP-205" value="" style="endArrow=diamondThin;endFill=1;endSize=24;html=1;rounded=1;labelBackgroundColor=none;fontColor=default;exitX=1;exitY=0.5;exitDx=0;exitDy=0;entryX=0.002;entryY=0.895;entryDx=0;entryDy=0;entryPerimeter=0;sketch=1;curveFitting=1;jiggle=2;" parent="1" source="-gvfTLy93oYBnbmSHMDP-196" target="-gvfTLy93oYBnbmSHMDP-201" edge="1">
          <mxGeometry width="160" relative="1" as="geometry">
            <mxPoint x="1150.06" y="1388.25" as="sourcePoint" />
            <mxPoint x="1420" y="1123.25" as="targetPoint" />
            <Array as="points">
              <mxPoint x="1260" y="1020" />
              <mxPoint x="1260" y="861" />
            </Array>
          </mxGeometry>
        </mxCell>
        <mxCell id="-gvfTLy93oYBnbmSHMDP-206" value="" style="shape=flexArrow;endArrow=classic;startArrow=classic;html=1;rounded=1;width=20;startSize=7.245977011494253;endSize=7.245977011494253;labelBackgroundColor=none;fontColor=default;sketch=1;curveFitting=1;jiggle=2;" parent="1" edge="1">
          <mxGeometry width="100" height="100" relative="1" as="geometry">
            <mxPoint x="1730" y="570" as="sourcePoint" />
            <mxPoint x="2120" y="670" as="targetPoint" />
            <Array as="points" />
          </mxGeometry>
        </mxCell>
        <mxCell id="-gvfTLy93oYBnbmSHMDP-207" value="WG Tunnel" style="text;whiteSpace=wrap;html=1;labelBackgroundColor=none;rounded=1;rotation=15;sketch=1;curveFitting=1;jiggle=2;fontSize=16;" parent="1" vertex="1">
          <mxGeometry x="1909.49" y="573.88" width="100" height="40" as="geometry" />
        </mxCell>
        <mxCell id="-gvfTLy93oYBnbmSHMDP-208" style="edgeStyle=orthogonalEdgeStyle;rounded=1;orthogonalLoop=1;jettySize=auto;html=1;endArrow=diamondThin;endFill=0;endSize=18;labelBackgroundColor=none;fontColor=default;exitX=1;exitY=0.5;exitDx=0;exitDy=0;sketch=1;curveFitting=1;jiggle=2;" parent="1" source="-gvfTLy93oYBnbmSHMDP-67" edge="1">
          <mxGeometry relative="1" as="geometry">
            <Array as="points">
              <mxPoint x="945" y="764" />
              <mxPoint x="945" y="590" />
            </Array>
            <mxPoint x="945" y="664" as="sourcePoint" />
            <mxPoint x="1310" y="590" as="targetPoint" />
          </mxGeometry>
        </mxCell>
        <mxCell id="zU4jF3XEPjKDnMYnnAlc-2" value="&lt;div style=&quot;font-size: 14px; line-height: 19px;&quot;&gt;&lt;div style=&quot;&quot;&gt;&lt;br&gt;&lt;/div&gt;&lt;div style=&quot;&quot;&gt;&lt;br&gt;&lt;/div&gt;&lt;/div&gt;" style="text;html=1;align=left;verticalAlign=middle;resizable=0;points=[];autosize=1;strokeColor=none;fillColor=none;" parent="1" vertex="1">
          <mxGeometry x="2255" y="1018" width="20" height="50" as="geometry" />
        </mxCell>
        <mxCell id="zU4jF3XEPjKDnMYnnAlc-4" value="" style="endArrow=diamondThin;endFill=0;endSize=24;html=1;rounded=1;entryX=1;entryY=0.5;entryDx=0;entryDy=0;labelBackgroundColor=none;fontColor=default;exitX=0.997;exitY=0.443;exitDx=0;exitDy=0;exitPerimeter=0;sketch=1;curveFitting=1;jiggle=2;" parent="1" target="-gvfTLy93oYBnbmSHMDP-50" edge="1">
          <mxGeometry width="160" relative="1" as="geometry">
            <mxPoint x="2970" y="393.5" as="sourcePoint" />
            <mxPoint x="3169" y="436.5" as="targetPoint" />
            <Array as="points">
              <mxPoint x="3171" y="393.5" />
              <mxPoint x="3170" y="880" />
            </Array>
          </mxGeometry>
        </mxCell>
        <mxCell id="zU4jF3XEPjKDnMYnnAlc-5" value="" style="endArrow=diamondThin;endFill=0;endSize=24;html=1;rounded=1;entryX=0.998;entryY=0.613;entryDx=0;entryDy=0;labelBackgroundColor=none;fontColor=default;sketch=1;curveFitting=1;jiggle=2;entryPerimeter=0;" parent="1" target="-gvfTLy93oYBnbmSHMDP-45" edge="1">
          <mxGeometry width="160" relative="1" as="geometry">
            <mxPoint x="2660" y="400" as="sourcePoint" />
            <mxPoint x="2247" y="864.75" as="targetPoint" />
            <Array as="points">
              <mxPoint x="2660" y="400" />
              <mxPoint x="2590" y="400" />
              <mxPoint x="2590" y="500" />
              <mxPoint x="2590" y="690" />
            </Array>
          </mxGeometry>
        </mxCell>
        <mxCell id="zU4jF3XEPjKDnMYnnAlc-7" value="" style="html=1;verticalAlign=bottom;endArrow=open;dashed=1;endSize=8;edgeStyle=elbowEdgeStyle;elbow=vertical;curved=0;rounded=0;exitX=-0.002;exitY=0.931;exitDx=0;exitDy=0;exitPerimeter=0;" parent="1" source="-gvfTLy93oYBnbmSHMDP-50" edge="1">
          <mxGeometry relative="1" as="geometry">
            <mxPoint x="2610" y="747.88" as="sourcePoint" />
            <mxPoint x="2530" y="750" as="targetPoint" />
            <Array as="points">
              <mxPoint x="2580" y="750" />
            </Array>
          </mxGeometry>
        </mxCell>
      </root>
    </mxGraphModel>
  </diagram>
</mxfile>
